# xmcd CD database file
#
# Track frame offsets:
#	150
#	13509
#	31052
#	56849
#	74912
#	81825
#	100860
#	110404
#	129619
#	145807
#
# Disc length: 2397 seconds
#
# Revision: 5
# Processed by: cddbd v1.5.2PL0 Copyright (c) Steve Scherf et al.
# Submitted via: CDex 2.12
#
DISCID=8a095b0a
DTITLE=Jean-Michel Jarre - Jean-Michel Jarre - Equinoxe Infinity
DYEAR=2018
DGENRE=Electronic
TTITLE0=Jean-Michel Jarre - THE WATCHERS (movement 1)
TTITLE1=Jean-Michel Jarre - FLYING TOTEMS (movement 2)
TTITLE2=Jean-Michel Jarre - ROBOTS DON'T CRY (movement 3)
TTITLE3=Jean-Michel Jarre - ALL THAT YOU LEAVE BEHIND (movement 4)
TTITLE4=Jean-Michel Jarre - IF THE WIND COULD SPEAK (movement 5)
TTITLE5=Jean-Michel Jarre - INFINITY (movement 6)
TTITLE6=Jean-Michel Jarre - MACHINES ARE LEARNING (movement 7)
TTITLE7=Jean-Michel Jarre - THE OPENING (movement 8)
TTITLE8=Jean-Michel Jarre - DON'T LOOK BACK (movement 9)
TTITLE9=Jean-Michel Jarre - EQUINOXE INFINITY (movement 10)
EXTD=YEAR: 2018
EXTT0=
EXTT1=
EXTT2=
EXTT3=
EXTT4=
EXTT5=
EXTT6=
EXTT7=
EXTT8=
EXTT9=
PLAYORDER=
